<svg xmlns="http://www.w3.org/2000/svg" width="200" height="155.4" viewBox="0 0 200 155.4">
  <defs>
    <style>
      .cls-1 {
        fill: #ddd;
        fill-rule: evenodd;
      }
    </style>
  </defs>
  <path id="icon_quote_left.svg" class="cls-1" d="M896.008,11928.5a89.562,89.562,0,0,0-19.3,56.3c0,18,4.727,32.3,14.185,43s20.7,16.1,33.719,16.1A38.661,38.661,0,0,0,953.1,12032c7.827-7.9,11.744-17,11.744-27.4a36.148,36.148,0,0,0-10.232-25.7q-10.236-10.8-23.487-10.8c-7.6,0-13.876,1.7-18.836,5.3a7.03,7.03,0,0,1-3.488,1.6,2.438,2.438,0,0,1-2.093-1.4c-0.93-1.4-1.4-3.5-1.4-6.5,0-13.6,4.57-26.7,13.72-39.4q13.717-18.9,37.9-27.8v-11.4Q915.306,11903.65,896.008,11928.5Zm-111.854,0a89.562,89.562,0,0,0-19.3,56.3c0,18,4.727,32.3,14.185,43s20.7,16.1,33.719,16.1a38.663,38.663,0,0,0,28.487-11.9c7.826-7.9,11.743-17,11.743-27.4a36.148,36.148,0,0,0-10.232-25.7q-10.234-10.8-23.487-10.8c-7.6,0-13.876,1.7-18.836,5.3a7.027,7.027,0,0,1-3.488,1.6,2.439,2.439,0,0,1-2.093-1.4c-0.93-1.4-1.395-3.5-1.395-6.5,0-13.6,4.571-26.7,13.72-39.4q13.719-18.9,37.9-27.8v-11.4Q803.451,11903.65,784.154,11928.5Z" transform="translate(-764.844 -11888.5)"/>
</svg>
